<svg width="200" height="200" viewBox="0 0 200 200" fill="none" xmlns="http://www.w3.org/2000/svg">
  <!-- Gradient Definitions -->
  <defs>
    <linearGradient id="bgGradient" x1="0%" y1="0%" x2="100%" y2="100%">
      <stop offset="0%" stop-color="#4F46E5" stop-opacity="0.2" />
      <stop offset="100%" stop-color="#818CF8" stop-opacity="0.1" />
    </linearGradient>
    <linearGradient id="lampGradient" x1="0%" y1="0%" x2="100%" y2="100%">
      <stop offset="0%" stop-color="#818CF8" />
      <stop offset="100%" stop-color="#6366F1" />
    </linearGradient>
    <filter id="glow" x="-20%" y="-20%" width="140%" height="140%">
      <feGaussianBlur stdDeviation="3" result="blur" />
      <feComposite in="SourceGraphic" in2="blur" operator="over" />
    </filter>
  </defs>
  
  <!-- Background Circle with Gradient -->
  <circle cx="100" cy="100" r="95" fill="url(#bgGradient)" />
  <circle cx="100" cy="100" r="85" stroke="#4F46E5" stroke-width="1" stroke-opacity="0.3" fill="none" />
  
  <!-- Document Base with Shadow -->
  <rect x="58" y="31" width="84" height="138" rx="8" fill="white" filter="drop-shadow(2px 4px 6px rgba(0, 0, 0, 0.1))" />
  <path d="M60 40C60 35.5817 63.5817 32 68 32H112L140 60V160C140 164.418 136.418 168 132 168H68C63.5817 168 60 164.418 60 160V40Z" fill="white" stroke="#4F46E5" stroke-width="4"/>
  
  <!-- Document Fold with Shine -->
  <path d="M112 32L140 60H120C115.582 60 112 56.4183 112 52V32Z" fill="#E0E7FF" stroke="#4F46E5" stroke-width="4"/>
  <path d="M116 36L136 56" stroke="#FFFFFF" stroke-width="2" stroke-opacity="0.7" />
  
  <!-- CV Elements -->
  <line x1="75" y1="70" x2="125" y2="70" stroke="#4F46E5" stroke-width="3" stroke-linecap="round"/>
  <line x1="75" y1="80" x2="105" y2="80" stroke="#4F46E5" stroke-width="3" stroke-linecap="round"/>
  <line x1="75" y1="92" x2="95" y2="92" stroke="#4F46E5" stroke-width="3" stroke-linecap="round"/>
  
  <!-- Skill Icons -->
  <circle cx="80" cy="110" r="5" fill="#F59E0B" />
  <circle cx="95" cy="110" r="5" fill="#10B981" />
  <circle cx="110" cy="110" r="5" fill="#EF4444" />
  
  <!-- Genie Lamp with Gradient -->
  <path d="M85 122C85 122 89 102 115 102C141 102 145 122 145 122" stroke="#4F46E5" stroke-width="4" stroke-linecap="round"/>
  <path d="M75 122H155C155 122 155 130 145 130H85C75 130 75 122 75 122Z" fill="url(#lampGradient)" stroke="#4F46E5" stroke-width="4"/>
  <path d="M105 130C105 130 110 142 115 142C120 142 125 130 125 130" stroke="#4F46E5" stroke-width="3" stroke-linecap="round" />
  
  <!-- Magic Smoke -->
  <path d="M115 95C115 95 110 88 115 82C120 76 125 82 125 82" stroke="#8B5CF6" stroke-width="2" stroke-linecap="round" opacity="0.7" />
  <path d="M125 90C125 90 130 83 125 77C120 71 115 77 115 77" stroke="#8B5CF6" stroke-width="2" stroke-linecap="round" opacity="0.7" />
  
  <!-- Magic Sparkles with Glow Effect -->
  <circle cx="125" cy="90" r="3" fill="#4F46E5" filter="url(#glow)"/>
  <circle cx="135" cy="85" r="2" fill="#4F46E5" filter="url(#glow)"/>
  <circle cx="105" cy="88" r="2" fill="#4F46E5" filter="url(#glow)"/>
  <path d="M115 85L118 82M115 80V76M110 85L107 82" stroke="#4F46E5" stroke-width="2" stroke-linecap="round" filter="url(#glow)"/>
  
  <!-- Star Bursts -->
  <path d="M130 75L132 80L137 82L132 84L130 89L128 84L123 82L128 80L130 75Z" fill="#FCD34D" />
  <path d="M95 75L96 78L99 79L96 80L95 83L94 80L91 79L94 78L95 75Z" fill="#FCD34D" />
  
  <!-- Bottom Document Lines -->
  <line x1="75" y1="154" x2="125" y2="154" stroke="#4F46E5" stroke-width="3" stroke-linecap="round"/>
  <line x1="75" y1="142" x2="115" y2="142" stroke="#4F46E5" stroke-width="3" stroke-linecap="round"/>
</svg>